<svg id="Laag_1" xmlns="http://www.w3.org/2000/svg" viewBox="0 0 112 112"><style>.st0{fill:#1a1a1a}</style><g id="XMLID_161_"><g id="XMLID_552_"><path id="XMLID_92_" class="st0" d="M56 57.2c-14.4 0-26.2-11.7-26.2-26.2S41.6 4.9 56 4.9 82.2 16.6 82.2 31 70.4 57.2 56 57.2zm0-41.3c-8.4 0-15.2 6.8-15.2 15.2S47.6 46.2 56 46.2 71.2 39.4 71.2 31 64.4 15.9 56 15.9z"/></g><g id="XMLID_618_"><path id="XMLID_95_" class="st0" d="M67.8 76.1l-4.9-4.9c-.8-.8-.8-2 0-2.8L91.3 40c.8-.8 2-.8 2.8 0l4.9 4.9c.8.8.8 2 0 2.8L70.7 76.1c-.8.8-2.1.8-2.9 0z"/></g><g id="XMLID_2_"><path id="XMLID_38_" class="st0" d="M13 47.8c-.8-.8-.8-2 0-2.8l4.9-4.9c.8-.8 2-.8 2.8 0l39.2 39.2c1 1 1.6 2.4 1.6 3.9v22.1c0 1.1-.9 2-2 2h-7c-1.1 0-2-.9-2-2v-20L13 47.8z"/></g></g></svg>