<svg id="Laag_1" xmlns="http://www.w3.org/2000/svg" viewBox="0 0 144 144"><style>.st0{fill:none;stroke:#fff;stroke-width:10;stroke-miterlimit:10}</style><g id="XMLID_10_"><g id="XMLID_22_"><path id="XMLID_19_" class="st0" d="M104.7 71l-34.1 34.1c-8.7 8.7-22.9 8.7-31.6 0-8.7-8.7-8.7-22.9 0-31.6l34-34.2c8.7-8.7 22.9-8.7 31.6 0 8.8 8.7 8.8 23 .1 31.7z"/><path id="XMLID_20_" class="st0" d="M137.2 38.5c-8.7 8.7-22.9 8.7-31.6 0-8.7-8.7-8.7-22.9 0-31.6l31.6 31.6z"/><path id="XMLID_21_" class="st0" d="M6.8 105.5c8.7-8.7 22.9-8.7 31.6 0 8.7 8.7 8.7 22.9 0 31.6L6.8 105.5z"/></g><g id="XMLID_24_"><path id="XMLID_28_" class="st0" d="M51.6 60.7v50.7"/><path id="XMLID_27_" class="st0" d="M71.4 41l.3 62.9"/><path id="XMLID_26_" class="st0" d="M91.5 33v51.1"/></g></g></svg>