<svg id="Laag_1" xmlns="http://www.w3.org/2000/svg" viewBox="0 0 112 112"><style>.st0{fill:#1a1a1a}</style><g id="XMLID_393_"><g id="XMLID_394_"><g id="XMLID_395_"><path id="XMLID_123_" class="st0" d="M53.5 103c-4.6-3.8-16.4-13.8-26.8-25.9C13.1 61.4 6.3 47.5 6.3 35.8c0-15.5 12.6-28.1 28.1-28.1 15.5 0 28.1 12.6 28.1 28.1v3.5c0 1.1-.9 2-2 2h-7c-1.1 0-2-.9-2-2v-3.5c0-9.4-7.7-17.1-17.1-17.1-9.4 0-17.1 7.7-17.1 17.1 0 10.9 10.5 31.1 39.7 55.8 29.2-24.8 39.7-44.9 39.7-55.8 0-9.4-7.7-17.1-17.1-17.1-2.6 0-5 .5-7.3 1.6l-3.2 1.5c-1 .5-2.2 0-2.7-1l-3-6.3c-.5-1 0-2.2 1-2.7l3.2-1.5c3.8-1.8 7.8-2.7 12-2.7 15.5 0 28.1 12.6 28.1 28.1 0 11.7-6.9 25.6-20.4 41.3C76.8 89.2 65 99.3 60.5 103c-1 .8-2.2 1.2-3.5 1.2-1.3.1-2.5-.3-3.5-1.2z"/></g></g></g></svg>