<svg id="Laag_1" xmlns="http://www.w3.org/2000/svg" viewBox="0 0 202 112"><style>.st0{fill:#999}.st1{fill:#333}.st2{fill:url(#XMLID_87_)}.st3{fill:url(#XMLID_88_)}</style><g id="XMLID_3_"><path id="XMLID_161_" class="st0" d="M28.5 108.1c0 2-1.6 2.9-3.7 2.9-1.8 0-3.8-1-3.8-3 0-.3.1-.4.4-.4h1.4c.3 0 .5 0 .5.4 0 .2.1.4.3.6.3.3.9.5 1.4.5.8 0 1.4-.2 1.4-1s-1.2-.8-2.4-1.2c-1.4-.4-2.7-1-2.7-2.8 0-1.8 1.7-2.7 3.4-2.8 1.8 0 3.7.8 3.7 2.7 0 .3-.1.4-.4.4h-1.4c-.3 0-.3-.2-.4-.4-.1-.1-.1-.3-.3-.4-.3-.3-.8-.4-1.2-.4-.5 0-1.2.2-1.2.8 0 .9 2.1 1.2 2.6 1.4.9.4 2.4.8 2.4 2.7z"/><path id="XMLID_163_" class="st0" d="M38.6 111c-1.7 0-3.8-1-3.8-3.2v-3.3c0-2.2 2.1-3.2 3.8-3.2 1.7 0 3.5.9 3.6 2.7 0 .3-.1.4-.4.4h-1.3c-.3 0-.3-.3-.4-.4-.3-.5-.7-.7-1.4-.7-.9 0-1.6.5-1.6 1.4v2.9c0 .9.6 1.4 1.6 1.4.8 0 1.4-.3 1.5-1 0-.3.1-.5.4-.5H42c.3 0 .4.1.4.5-.2 1.9-2.1 3-3.8 3z"/><path id="XMLID_165_" class="st0" d="M56.5 102v8.4c0 .3-.2.4-.4.4h-1.4c-.3 0-.4-.1-.4-.4v-3.2h-3.1v3.2c0 .3-.1.4-.4.4h-1.4c-.3 0-.4-.1-.4-.4V102c0-.3.2-.4.4-.4h1.4c.3 0 .4.1.4.4v3.2h3.1V102c0-.3.2-.4.4-.4h1.4c.3 0 .4.1.4.4z"/><path id="XMLID_167_" class="st0" d="M70.7 109.3v1.1c0 .3-.1.4-.4.4H64c-.3 0-.4-.2-.4-.4V102c0-.3.1-.4.4-.4h6c.3 0 .4.2.4.4v1.2c0 .3-.1.4-.4.4h-4.2v1.5h3.8c.3 0 .4.2.4.4v1.1c0 .3-.1.4-.4.4h-3.8v1.8h4.5c.3.1.4.2.4.5z"/><path id="XMLID_169_" class="st0" d="M85.1 102l-3 8.4c-.2.4-.3.4-.6.4h-1.3c-.3 0-.4-.1-.6-.4l-3-8.4c-.1-.2 0-.4.3-.4h1.6c.4 0 .5.1.6.4l1.9 5.8 1.9-5.8c.1-.3.2-.4.6-.4H85c.1 0 .1.2.1.4z"/><path id="XMLID_171_" class="st0" d="M98.5 109.3v1.1c0 .3-.1.4-.4.4h-6.3c-.3 0-.4-.2-.4-.4V102c0-.3.1-.4.4-.4h6c.3 0 .4.2.4.4v1.2c0 .3-.1.4-.4.4h-4.2v1.5h3.8c.3 0 .4.2.4.4v1.1c0 .3-.1.4-.4.4h-3.8v1.8h4.5c.3.1.4.2.4.5z"/><path id="XMLID_173_" class="st0" d="M112.7 102v8.4c0 .3-.1.4-.4.4H111c-.4 0-.4-.2-.6-.5l-3-4.8v4.9c0 .3-.2.4-.4.4h-1.4c-.3 0-.4-.1-.4-.4V102c0-.3.1-.4.4-.4h1.3c.4 0 .4.2.6.5l3 4.8V102c0-.3.2-.4.4-.4h1.3c.4 0 .5.1.5.4z"/><path id="XMLID_175_" class="st0" d="M124.2 109.3v1.1c0 .3-.1.4-.4.4h-4c-.3 0-.4-.2-.4-.4v-1.1c0-.3.1-.4.4-.4h.9v-5.4h-.9c-.3 0-.4-.2-.4-.4V102c0-.3.1-.4.4-.4h3.9c.3 0 .4.2.4.4v1.1c0 .3-.1.4-.4.4h-.8v5.4h.9c.3 0 .4.2.4.4z"/><path id="XMLID_177_" class="st0" d="M138.5 102v8.4c0 .3-.1.4-.4.4h-1.3c-.4 0-.4-.2-.6-.5l-3-4.8v4.9c0 .3-.2.4-.4.4h-1.4c-.3 0-.4-.1-.4-.4V102c0-.3.1-.4.4-.4h1.3c.4 0 .4.2.6.5l3 4.8V102c0-.3.2-.4.4-.4h1.3c.4 0 .5.1.5.4z"/><path id="XMLID_179_" class="st0" d="M152.9 106.1v2c-.1 2-2.2 2.9-3.8 2.9-1.7 0-3.8-.8-3.8-3v-3.4c0-2.2 2.1-3.2 3.8-3.2 1.8 0 3.8 1 3.8 2.9 0 .3-.1.4-.4.4h-1.4c-.4 0-.3-.3-.4-.5-.2-.4-.7-.9-1.6-.9-.9 0-1.5.6-1.5 1.5v2.8c0 .9.6 1.4 1.5 1.4s1.6-.4 1.6-1.5h-1.3c-.3 0-.4-.2-.4-.4V106c0-.3.1-.4.4-.4h3.1c.3.1.4.2.4.5z"/><path id="XMLID_181_" class="st0" d="M166.8 109.3v1.1c0 .3-.1.4-.4.4h-6.3c-.3 0-.4-.2-.4-.4V102c0-.3.1-.4.4-.4h6c.3 0 .4.2.4.4v1.2c0 .3-.1.4-.4.4H162v1.5h3.8c.3 0 .4.2.4.4v1.1c0 .3-.1.4-.4.4H162v1.8h4.5c.2.1.3.2.3.5z"/><path id="XMLID_183_" class="st0" d="M181 102v8.4c0 .3-.1.4-.4.4h-1.3c-.4 0-.4-.2-.6-.5l-3-4.8v4.9c0 .3-.2.4-.4.4H174c-.3 0-.4-.1-.4-.4V102c0-.3.1-.4.4-.4h1.3c.4 0 .4.2.6.5l3 4.8V102c0-.3.2-.4.4-.4h1.3c.3 0 .4.1.4.4z"/><path id="XMLID_45_" class="st1" d="M18.1 93.7h-3.8c-.8 0-1.2-.3-1.6-1l-3.5-5.2c-.3-.4-.4-.7-.4-1.6v-2.6c0-.6.2-.9.9-.9h.6c1.6 0 3-1.1 3-2.6 0-1.7-1.3-2.7-2.9-2.7h-4v15.6c0 .7-.4.9-.9.9H2.3c-.6 0-.9-.2-.9-.9V73.6c0-.6.2-.9.9-.9h8.1c3.5 0 5 .7 6.4 2 1.2 1.2 1.9 3 1.9 5 0 3.4-2.5 5.7-4.4 6.4l4.5 6.6c.1.4-.1 1-.7 1z"/><path id="XMLID_43_" class="st1" d="M50.4 90.1v2.6c0 .6-.2.9-.9.9H35.1c-.7 0-.9-.4-.9-.9V73.6c0-.6.2-.9.9-.9h13.8c.7 0 .9.4.9.9v2.7c0 .6-.2.9-.9.9h-9.7v3.5h8.6c.7 0 .9.4.9.9v2.5c0 .6-.2.9-.9.9h-8.6v4.2h10.2c.8 0 1 .4 1 .9z"/><path id="XMLID_40_" class="st1" d="M83.3 93.7H80c-.7 0-1-.2-1.2-1l-.9-2.5H70l-.9 2.5c-.3.8-.5 1-1.2 1h-3.4c-.7 0-.7-.5-.5-.9l7.1-19.2c.3-.7.6-1 1.3-1h3.1c.7 0 1 .3 1.3 1l7.1 19.2c.2.4.2.9-.6.9zm-6.9-8l-2.4-7-2.4 7.1h4.8z"/><path id="XMLID_38_" class="st1" d="M113.4 90.1v2.6c0 .6-.2.9-.9.9H99.2c-.7 0-.9-.4-.9-.9V73.6c0-.7.4-.9.9-.9h3.2c.6 0 .9.2.9.9v15.6h9.2c.7 0 .9.4.9.9z"/><path id="XMLID_36_" class="st1" d="M138.5 90.2v2.5c0 .6-.2.9-.9.9h-9.1c-.7 0-.9-.4-.9-.9v-2.5c0-.6.2-.9.9-.9h2V77.1h-2c-.7 0-.9-.4-.9-.9v-2.6c0-.6.2-.9.9-.9h8.9c.7 0 .9.4.9.9v2.6c0 .6-.2.9-.9.9h-1.9v12.2h2c.8 0 1 .4 1 .9z"/><path id="XMLID_34_" class="st1" d="M169.3 73.6v2.7c0 .6-.2.9-.9.9h-4.9v15.6c0 .7-.4.9-.9.9h-3.2c-.6 0-.9-.2-.9-.9V77.1h-4.9c-.7 0-.9-.4-.9-.9v-2.7c0-.6.2-.9.9-.9h14.8c.7 0 .9.4.9 1z"/><path id="XMLID_32_" class="st1" d="M200.6 73.5L194 85.8v7c0 .7-.4.9-.9.9h-3.2c-.6 0-.9-.2-.9-.9v-7l-6.8-12.3c-.2-.4-.1-.9.5-.9h3.7c.7 0 1.1.1 1.5 1l3.7 6.9 3.6-6.9c.4-.9.7-1 1.5-1h3.5c.5 0 .5.6.4.9z"/><g id="XMLID_29_"><linearGradient id="XMLID_87_" gradientUnits="userSpaceOnUse" x1="101" y1="62.098" x2="101" y2="4.423"><stop offset="0" stop-color="#9ab5ac"/><stop offset=".2" stop-color="#d6cfc1"/><stop offset=".4" stop-color="#b89765"/><stop offset=".6" stop-color="#b78463"/><stop offset=".8" stop-color="#5f616c"/><stop offset="1" stop-color="#1d2c31"/></linearGradient><path id="XMLID_30_" class="st2" d="M111.4 29.1v-3c0-.6.4-1 1-1h6.6L101 7.2 83.1 25.1h6.6c.6 0 1 .4 1 1v3c0 .6-.4 1-1 1H73c-1.1 0-1.4-.6-.6-1.4L99.6 1.5c.8-.8 2-.8 2.8 0l27.1 27.1c.8.8.5 1.4-.6 1.4h-16.6c-.5.1-.9-.3-.9-.9z"/></g><g id="XMLID_4_"><linearGradient id="XMLID_88_" gradientUnits="userSpaceOnUse" x1="100.862" y1="59.099" x2="101.196" y2="2.433"><stop offset="0" stop-color="#9ab5ac"/><stop offset=".2" stop-color="#d6cfc1"/><stop offset=".4" stop-color="#b89765"/><stop offset=".6" stop-color="#b78463"/><stop offset=".8" stop-color="#5f616c"/><stop offset="1" stop-color="#1d2c31"/></linearGradient><path id="XMLID_5_" class="st3" d="M73 35.1h16.6c.6 0 1 .4 1 1v3c0 .6-.4 1-1 1H83L101 58l17.9-17.9h-6.6c-.6 0-1-.4-1-1v-3c0-.6.4-1 1-1H129c1.1 0 1.4.6.6 1.4l-27.1 27.1c-.8.8-2 .8-2.8 0L72.4 36.5c-.7-.8-.5-1.4.6-1.4z"/></g></g></svg>