<?xml version="1.0" encoding="utf-8"?>
<!-- Generator: Adobe Illustrator 19.0.0, SVG Export Plug-In . SVG Version: 6.00 Build 0)  -->
<svg version="1.1" id="Laag_1" xmlns="http://www.w3.org/2000/svg" xmlns:xlink="http://www.w3.org/1999/xlink" x="0px" y="0px"
	 viewBox="0 0 202 112" style="enable-background:new 0 0 202 112;" xml:space="preserve">
<style type="text/css">
	.st0{fill:#999999;}
	.st1{fill:#333333;}
	.st2{fill:url(#XMLID_87_);}
	.st3{fill:url(#XMLID_88_);}
</style>
<g id="XMLID_3_">
	<path id="XMLID_161_" class="st0" d="M28.5,108.1c0,2-1.6,2.9-3.7,2.9c-1.8,0-3.8-1-3.8-3c0-0.3,0.1-0.4,0.4-0.4h1.4
		c0.3,0,0.5,0,0.5,0.4c0,0.2,0.1,0.4,0.3,0.6c0.3,0.3,0.9,0.5,1.4,0.5c0.8,0,1.4-0.2,1.4-1c0-0.8-1.2-0.8-2.4-1.2
		c-1.4-0.4-2.7-1-2.7-2.8c0-1.8,1.7-2.7,3.4-2.8c1.8,0,3.7,0.8,3.7,2.7c0,0.3-0.1,0.4-0.4,0.4h-1.4c-0.3,0-0.3-0.2-0.4-0.4
		c-0.1-0.1-0.1-0.3-0.3-0.4c-0.3-0.3-0.8-0.4-1.2-0.4c-0.5,0-1.2,0.2-1.2,0.8c0,0.9,2.1,1.2,2.6,1.4C27,105.8,28.5,106.2,28.5,108.1
		z"/>
	<path id="XMLID_163_" class="st0" d="M38.6,111c-1.7,0-3.8-1-3.8-3.2v-3.3c0-2.2,2.1-3.2,3.8-3.2c1.7,0,3.5,0.9,3.6,2.7
		c0,0.3-0.1,0.4-0.4,0.4h-1.3c-0.3,0-0.3-0.3-0.4-0.4c-0.3-0.5-0.7-0.7-1.4-0.7c-0.9,0-1.6,0.5-1.6,1.4v2.9c0,0.9,0.6,1.4,1.6,1.4
		c0.8,0,1.4-0.3,1.5-1c0-0.3,0.1-0.5,0.4-0.5h1.4c0.3,0,0.4,0.1,0.4,0.5C42.2,109.9,40.3,111,38.6,111z"/>
	<path id="XMLID_165_" class="st0" d="M56.5,102v8.4c0,0.3-0.2,0.4-0.4,0.4h-1.4c-0.3,0-0.4-0.1-0.4-0.4v-3.2h-3.1v3.2
		c0,0.3-0.1,0.4-0.4,0.4h-1.4c-0.3,0-0.4-0.1-0.4-0.4V102c0-0.3,0.2-0.4,0.4-0.4h1.4c0.3,0,0.4,0.1,0.4,0.4v3.2h3.1V102
		c0-0.3,0.2-0.4,0.4-0.4h1.4C56.4,101.6,56.5,101.7,56.5,102z"/>
	<path id="XMLID_167_" class="st0" d="M70.7,109.3v1.1c0,0.3-0.1,0.4-0.4,0.4h-6.3c-0.3,0-0.4-0.2-0.4-0.4V102
		c0-0.3,0.1-0.4,0.4-0.4h6c0.3,0,0.4,0.2,0.4,0.4v1.2c0,0.3-0.1,0.4-0.4,0.4h-4.2v1.5h3.8c0.3,0,0.4,0.2,0.4,0.4v1.1
		c0,0.3-0.1,0.4-0.4,0.4h-3.8v1.8h4.5C70.6,108.9,70.7,109,70.7,109.3z"/>
	<path id="XMLID_169_" class="st0" d="M85.1,102l-3,8.4c-0.2,0.4-0.3,0.4-0.6,0.4h-1.3c-0.3,0-0.4-0.1-0.6-0.4l-3-8.4
		c-0.1-0.2,0-0.4,0.3-0.4h1.6c0.4,0,0.5,0.1,0.6,0.4l1.9,5.8l1.9-5.8c0.1-0.3,0.2-0.4,0.6-0.4h1.5C85.1,101.6,85.1,101.8,85.1,102z"
		/>
	<path id="XMLID_171_" class="st0" d="M98.5,109.3v1.1c0,0.3-0.1,0.4-0.4,0.4h-6.3c-0.3,0-0.4-0.2-0.4-0.4V102
		c0-0.3,0.1-0.4,0.4-0.4h6c0.3,0,0.4,0.2,0.4,0.4v1.2c0,0.3-0.1,0.4-0.4,0.4h-4.2v1.5h3.8c0.3,0,0.4,0.2,0.4,0.4v1.1
		c0,0.3-0.1,0.4-0.4,0.4h-3.8v1.8h4.5C98.4,108.9,98.5,109,98.5,109.3z"/>
	<path id="XMLID_173_" class="st0" d="M112.7,102v8.4c0,0.3-0.1,0.4-0.4,0.4H111c-0.4,0-0.4-0.2-0.6-0.5l-3-4.8v4.9
		c0,0.3-0.2,0.4-0.4,0.4h-1.4c-0.3,0-0.4-0.1-0.4-0.4V102c0-0.3,0.1-0.4,0.4-0.4h1.3c0.4,0,0.4,0.2,0.6,0.5l3,4.8V102
		c0-0.3,0.2-0.4,0.4-0.4h1.3C112.6,101.6,112.7,101.7,112.7,102z"/>
	<path id="XMLID_175_" class="st0" d="M124.2,109.3v1.1c0,0.3-0.1,0.4-0.4,0.4h-4c-0.3,0-0.4-0.2-0.4-0.4v-1.1
		c0-0.3,0.1-0.4,0.4-0.4h0.9v-5.4h-0.9c-0.3,0-0.4-0.2-0.4-0.4V102c0-0.3,0.1-0.4,0.4-0.4h3.9c0.3,0,0.4,0.2,0.4,0.4v1.1
		c0,0.3-0.1,0.4-0.4,0.4h-0.8v5.4h0.9C124.1,108.9,124.2,109.1,124.2,109.3z"/>
	<path id="XMLID_177_" class="st0" d="M138.5,102v8.4c0,0.3-0.1,0.4-0.4,0.4h-1.3c-0.4,0-0.4-0.2-0.6-0.5l-3-4.8v4.9
		c0,0.3-0.2,0.4-0.4,0.4h-1.4c-0.3,0-0.4-0.1-0.4-0.4V102c0-0.3,0.1-0.4,0.4-0.4h1.3c0.4,0,0.4,0.2,0.6,0.5l3,4.8V102
		c0-0.3,0.2-0.4,0.4-0.4h1.3C138.4,101.6,138.5,101.7,138.5,102z"/>
	<path id="XMLID_179_" class="st0" d="M152.9,106.1v2c-0.1,2-2.2,2.9-3.8,2.9c-1.7,0-3.8-0.8-3.8-3v-3.4c0-2.2,2.1-3.2,3.8-3.2
		c1.8,0,3.8,1,3.8,2.9c0,0.3-0.1,0.4-0.4,0.4h-1.4c-0.4,0-0.3-0.3-0.4-0.5c-0.2-0.4-0.7-0.9-1.6-0.9c-0.9,0-1.5,0.6-1.5,1.5v2.8
		c0,0.9,0.6,1.4,1.5,1.4c0.9,0,1.6-0.4,1.6-1.5h-1.3c-0.3,0-0.4-0.2-0.4-0.4v-1.1c0-0.3,0.1-0.4,0.4-0.4h3.1
		C152.8,105.7,152.9,105.8,152.9,106.1z"/>
	<path id="XMLID_181_" class="st0" d="M166.8,109.3v1.1c0,0.3-0.1,0.4-0.4,0.4h-6.3c-0.3,0-0.4-0.2-0.4-0.4V102
		c0-0.3,0.1-0.4,0.4-0.4h6c0.3,0,0.4,0.2,0.4,0.4v1.2c0,0.3-0.1,0.4-0.4,0.4H162v1.5h3.8c0.3,0,0.4,0.2,0.4,0.4v1.1
		c0,0.3-0.1,0.4-0.4,0.4H162v1.8h4.5C166.7,108.9,166.8,109,166.8,109.3z"/>
	<path id="XMLID_183_" class="st0" d="M181,102v8.4c0,0.3-0.1,0.4-0.4,0.4h-1.3c-0.4,0-0.4-0.2-0.6-0.5l-3-4.8v4.9
		c0,0.3-0.2,0.4-0.4,0.4H174c-0.3,0-0.4-0.1-0.4-0.4V102c0-0.3,0.1-0.4,0.4-0.4h1.3c0.4,0,0.4,0.2,0.6,0.5l3,4.8V102
		c0-0.3,0.2-0.4,0.4-0.4h1.3C180.9,101.6,181,101.7,181,102z"/>
	<path id="XMLID_45_" class="st1" d="M18.1,93.7h-3.8c-0.8,0-1.2-0.3-1.6-1l-3.5-5.2c-0.3-0.4-0.4-0.7-0.4-1.6v-2.6
		c0-0.6,0.2-0.9,0.9-0.9h0.6c1.6,0,3-1.1,3-2.6c0-1.7-1.3-2.7-2.9-2.7H6.4v15.6c0,0.7-0.4,0.9-0.9,0.9H2.3c-0.6,0-0.9-0.2-0.9-0.9
		V73.6c0-0.6,0.2-0.9,0.9-0.9h8.1c3.5,0,5,0.7,6.4,2c1.2,1.2,1.9,3,1.9,5c0,3.4-2.5,5.7-4.4,6.4l4.5,6.6
		C18.9,93.1,18.7,93.7,18.1,93.7z"/>
	<path id="XMLID_43_" class="st1" d="M50.4,90.1v2.6c0,0.6-0.2,0.9-0.9,0.9H35.1c-0.7,0-0.9-0.4-0.9-0.9V73.6c0-0.6,0.2-0.9,0.9-0.9
		h13.8c0.7,0,0.9,0.4,0.9,0.9v2.7c0,0.6-0.2,0.9-0.9,0.9h-9.7v3.5h8.6c0.7,0,0.9,0.4,0.9,0.9v2.5c0,0.6-0.2,0.9-0.9,0.9h-8.6v4.2
		h10.2C50.2,89.2,50.4,89.6,50.4,90.1z"/>
	<path id="XMLID_40_" class="st1" d="M83.3,93.7H80c-0.7,0-1-0.2-1.2-1l-0.9-2.5H70l-0.9,2.5c-0.3,0.8-0.5,1-1.2,1h-3.4
		c-0.7,0-0.7-0.5-0.5-0.9l7.1-19.2c0.3-0.7,0.6-1,1.3-1h3.1c0.7,0,1,0.3,1.3,1l7.1,19.2C84.1,93.2,84.1,93.7,83.3,93.7z M76.4,85.7
		L74,78.7l-2.4,7.1H76.4z"/>
	<path id="XMLID_38_" class="st1" d="M113.4,90.1v2.6c0,0.6-0.2,0.9-0.9,0.9H99.2c-0.7,0-0.9-0.4-0.9-0.9V73.6
		c0-0.7,0.4-0.9,0.9-0.9h3.2c0.6,0,0.9,0.2,0.9,0.9v15.6h9.2C113.2,89.2,113.4,89.6,113.4,90.1z"/>
	<path id="XMLID_36_" class="st1" d="M138.5,90.2v2.5c0,0.6-0.2,0.9-0.9,0.9h-9.1c-0.7,0-0.9-0.4-0.9-0.9v-2.5
		c0-0.6,0.2-0.9,0.9-0.9h2V77.1h-2c-0.7,0-0.9-0.4-0.9-0.9v-2.6c0-0.6,0.2-0.9,0.9-0.9h8.9c0.7,0,0.9,0.4,0.9,0.9v2.6
		c0,0.6-0.2,0.9-0.9,0.9h-1.9v12.2h2C138.3,89.3,138.5,89.7,138.5,90.2z"/>
	<path id="XMLID_34_" class="st1" d="M169.3,73.6v2.7c0,0.6-0.2,0.9-0.9,0.9h-4.9v15.6c0,0.7-0.4,0.9-0.9,0.9h-3.2
		c-0.6,0-0.9-0.2-0.9-0.9V77.1h-4.9c-0.7,0-0.9-0.4-0.9-0.9v-2.7c0-0.6,0.2-0.9,0.9-0.9h14.8C169.1,72.6,169.3,73,169.3,73.6z"/>
	<path id="XMLID_32_" class="st1" d="M200.6,73.5L194,85.8v7c0,0.7-0.4,0.9-0.9,0.9h-3.2c-0.6,0-0.9-0.2-0.9-0.9v-7l-6.8-12.3
		c-0.2-0.4-0.1-0.9,0.5-0.9h3.7c0.7,0,1.1,0.1,1.5,1l3.7,6.9l3.6-6.9c0.4-0.9,0.7-1,1.5-1h3.5C200.7,72.6,200.7,73.2,200.6,73.5z"/>
	<g id="XMLID_29_">
		<linearGradient id="XMLID_87_" gradientUnits="userSpaceOnUse" x1="101" y1="62.0981" x2="101" y2="4.4227">
			<stop  offset="0" style="stop-color:#9AB5AC"/>
			<stop  offset="0.2" style="stop-color:#D6CFC1"/>
			<stop  offset="0.4" style="stop-color:#B89765"/>
			<stop  offset="0.6" style="stop-color:#B78463"/>
			<stop  offset="0.8" style="stop-color:#5F616C"/>
			<stop  offset="1" style="stop-color:#1D2C31"/>
		</linearGradient>
		<path id="XMLID_30_" class="st2" d="M111.4,29.1v-3c0-0.6,0.4-1,1-1h6.6L101,7.2L83.1,25.1h6.6c0.6,0,1,0.4,1,1v3c0,0.6-0.4,1-1,1
			H73c-1.1,0-1.4-0.6-0.6-1.4L99.6,1.5c0.8-0.8,2-0.8,2.8,0l27.1,27.1c0.8,0.8,0.5,1.4-0.6,1.4h-16.6
			C111.8,30.1,111.4,29.7,111.4,29.1z"/>
	</g>
	<g id="XMLID_4_">
		<linearGradient id="XMLID_88_" gradientUnits="userSpaceOnUse" x1="100.8624" y1="59.0995" x2="101.1958" y2="2.4328">
			<stop  offset="0" style="stop-color:#9AB5AC"/>
			<stop  offset="0.2" style="stop-color:#D6CFC1"/>
			<stop  offset="0.4" style="stop-color:#B89765"/>
			<stop  offset="0.6" style="stop-color:#B78463"/>
			<stop  offset="0.8" style="stop-color:#5F616C"/>
			<stop  offset="1" style="stop-color:#1D2C31"/>
		</linearGradient>
		<path id="XMLID_5_" class="st3" d="M73,35.1h16.6c0.6,0,1,0.4,1,1v3c0,0.6-0.4,1-1,1h-6.6L101,58l17.9-17.9h-6.6c-0.6,0-1-0.4-1-1
			v-3c0-0.6,0.4-1,1-1H129c1.1,0,1.4,0.6,0.6,1.4l-27.1,27.1c-0.8,0.8-2,0.8-2.8,0L72.4,36.5C71.7,35.7,71.9,35.1,73,35.1z"/>
	</g>
</g>
</svg>
