<?xml version="1.0" encoding="utf-8"?>
<!-- Generator: Adobe Illustrator 19.0.0, SVG Export Plug-In . SVG Version: 6.00 Build 0)  -->
<svg version="1.1" id="Laag_1" xmlns="http://www.w3.org/2000/svg" xmlns:xlink="http://www.w3.org/1999/xlink" x="0px" y="0px"
	 viewBox="0 0 65 65" style="enable-background:new 0 0 65 65;" xml:space="preserve">
<style type="text/css">
	.st0{fill:url(#XMLID_54_);}
	.st1{fill:url(#XMLID_55_);}
</style>
<g id="XMLID_88_">
	<g id="XMLID_91_">
		<linearGradient id="XMLID_54_" gradientUnits="userSpaceOnUse" x1="32.5" y1="61.986" x2="32.5" y2="4.3107">
			<stop  offset="0" style="stop-color:#9AB5AC"/>
			<stop  offset="0.2" style="stop-color:#D6CFC1"/>
			<stop  offset="0.4" style="stop-color:#B89765"/>
			<stop  offset="0.6" style="stop-color:#B78463"/>
			<stop  offset="0.8" style="stop-color:#5F616C"/>
			<stop  offset="1" style="stop-color:#1D2C31"/>
		</linearGradient>
		<path id="XMLID_92_" class="st0" d="M42.9,29v-3c0-0.6,0.4-1,1-1h6.6L32.5,7.1L14.6,25h6.6c0.6,0,1,0.4,1,1v3c0,0.6-0.4,1-1,1H4.5
			c-1.1,0-1.4-0.6-0.6-1.4L31.1,1.4c0.8-0.8,2-0.8,2.8,0l27.1,27.1c0.8,0.8,0.5,1.4-0.6,1.4H43.9C43.3,30,42.9,29.6,42.9,29z"/>
	</g>
	<g id="XMLID_89_">
		<linearGradient id="XMLID_55_" gradientUnits="userSpaceOnUse" x1="32.3624" y1="58.9874" x2="32.6958" y2="2.3207">
			<stop  offset="0" style="stop-color:#9AB5AC"/>
			<stop  offset="0.2" style="stop-color:#D6CFC1"/>
			<stop  offset="0.4" style="stop-color:#B89765"/>
			<stop  offset="0.6" style="stop-color:#B78463"/>
			<stop  offset="0.8" style="stop-color:#5F616C"/>
			<stop  offset="1" style="stop-color:#1D2C31"/>
		</linearGradient>
		<path id="XMLID_90_" class="st1" d="M4.5,35h16.6c0.6,0,1,0.4,1,1v3c0,0.6-0.4,1-1,1h-6.6l17.9,17.9L50.4,40h-6.6
			c-0.6,0-1-0.4-1-1v-3c0-0.6,0.4-1,1-1h16.6c1.1,0,1.4,0.6,0.6,1.4L33.9,63.6c-0.8,0.8-2,0.8-2.8,0L3.9,36.4
			C3.2,35.6,3.4,35,4.5,35z"/>
	</g>
</g>
</svg>
