<svg id="Laag_1" xmlns="http://www.w3.org/2000/svg" viewBox="0 0 65 65"><style>.st0{fill:url(#XMLID_54_)}.st1{fill:url(#XMLID_55_)}</style><g id="XMLID_88_"><g id="XMLID_91_"><linearGradient id="XMLID_54_" gradientUnits="userSpaceOnUse" x1="32.5" y1="61.986" x2="32.5" y2="4.311"><stop offset="0" stop-color="#9ab5ac"/><stop offset=".2" stop-color="#d6cfc1"/><stop offset=".4" stop-color="#b89765"/><stop offset=".6" stop-color="#b78463"/><stop offset=".8" stop-color="#5f616c"/><stop offset="1" stop-color="#1d2c31"/></linearGradient><path id="XMLID_92_" class="st0" d="M42.9 29v-3c0-.6.4-1 1-1h6.6l-18-17.9L14.6 25h6.6c.6 0 1 .4 1 1v3c0 .6-.4 1-1 1H4.5c-1.1 0-1.4-.6-.6-1.4L31.1 1.4c.8-.8 2-.8 2.8 0L61 28.5c.8.8.5 1.4-.6 1.4H43.9c-.6.1-1-.3-1-.9z"/></g><g id="XMLID_89_"><linearGradient id="XMLID_55_" gradientUnits="userSpaceOnUse" x1="32.362" y1="58.987" x2="32.696" y2="2.321"><stop offset="0" stop-color="#9ab5ac"/><stop offset=".2" stop-color="#d6cfc1"/><stop offset=".4" stop-color="#b89765"/><stop offset=".6" stop-color="#b78463"/><stop offset=".8" stop-color="#5f616c"/><stop offset="1" stop-color="#1d2c31"/></linearGradient><path id="XMLID_90_" class="st1" d="M4.5 35h16.6c.6 0 1 .4 1 1v3c0 .6-.4 1-1 1h-6.6l17.9 17.9 18-17.9h-6.6c-.6 0-1-.4-1-1v-3c0-.6.4-1 1-1h16.6c1.1 0 1.4.6.6 1.4L33.9 63.6c-.8.8-2 .8-2.8 0L3.9 36.4c-.7-.8-.5-1.4.6-1.4z"/></g></g></svg>