<?xml version="1.0" encoding="utf-8"?>
<!-- Generator: Adobe Illustrator 19.0.0, SVG Export Plug-In . SVG Version: 6.00 Build 0)  -->
<svg version="1.1" id="Laag_1" xmlns="http://www.w3.org/2000/svg" xmlns:xlink="http://www.w3.org/1999/xlink" x="0px" y="0px"
	 viewBox="0 0 202 112" style="enable-background:new 0 0 202 112;" xml:space="preserve">
<style type="text/css">
	.st0{fill:#333333;}
	.st1{fill:url(#XMLID_4_);}
	.st2{fill:url(#XMLID_5_);}
	.st3{fill:#999999;}
</style>
<g id="XMLID_86_">
	<g id="XMLID_87_">
		<g id="XMLID_93_">
			<path id="XMLID_107_" class="st0" d="M18.1,93.7h-3.8c-0.8,0-1.2-0.3-1.6-1l-3.5-5.2c-0.3-0.4-0.4-0.7-0.4-1.6v-2.6
				c0-0.6,0.2-0.9,0.9-0.9h0.6c1.6,0,3-1.1,3-2.6c0-1.7-1.3-2.7-2.9-2.7H6.4v15.6c0,0.7-0.4,0.9-0.9,0.9H2.3c-0.6,0-0.9-0.2-0.9-0.9
				V73.6c0-0.6,0.2-0.9,0.9-0.9h8.1c3.5,0,5,0.7,6.4,2c1.2,1.2,1.9,3,1.9,5c0,3.4-2.5,5.7-4.4,6.4l4.5,6.6
				C18.9,93.1,18.7,93.7,18.1,93.7z"/>
			<path id="XMLID_105_" class="st0" d="M50.4,90.1v2.6c0,0.6-0.2,0.9-0.9,0.9H35.1c-0.7,0-0.9-0.4-0.9-0.9V73.6
				c0-0.6,0.2-0.9,0.9-0.9h13.8c0.7,0,0.9,0.4,0.9,0.9v2.7c0,0.6-0.2,0.9-0.9,0.9h-9.7v3.5h8.6c0.7,0,0.9,0.4,0.9,0.9v2.5
				c0,0.6-0.2,0.9-0.9,0.9h-8.6v4.2h10.2C50.2,89.2,50.4,89.6,50.4,90.1z"/>
			<path id="XMLID_102_" class="st0" d="M83.3,93.7H80c-0.7,0-1-0.2-1.2-1l-0.9-2.5H70l-0.9,2.5c-0.3,0.8-0.5,1-1.2,1h-3.4
				c-0.7,0-0.7-0.5-0.5-0.9l7.1-19.2c0.3-0.7,0.6-1,1.3-1h3.1c0.7,0,1,0.3,1.3,1l7.1,19.2C84.1,93.2,84.1,93.7,83.3,93.7z
				 M76.4,85.7L74,78.7l-2.4,7.1H76.4z"/>
			<path id="XMLID_100_" class="st0" d="M113.4,90.1v2.6c0,0.6-0.2,0.9-0.9,0.9H99.2c-0.7,0-0.9-0.4-0.9-0.9V73.6
				c0-0.7,0.4-0.9,0.9-0.9h3.2c0.6,0,0.9,0.2,0.9,0.9v15.6h9.2C113.2,89.2,113.4,89.6,113.4,90.1z"/>
			<path id="XMLID_98_" class="st0" d="M138.5,90.2v2.5c0,0.6-0.2,0.9-0.9,0.9h-9.1c-0.7,0-0.9-0.4-0.9-0.9v-2.5
				c0-0.6,0.2-0.9,0.9-0.9h2V77.1h-2c-0.7,0-0.9-0.4-0.9-0.9v-2.6c0-0.6,0.2-0.9,0.9-0.9h8.9c0.7,0,0.9,0.4,0.9,0.9v2.6
				c0,0.6-0.2,0.9-0.9,0.9h-1.9v12.2h2C138.3,89.3,138.5,89.7,138.5,90.2z"/>
			<path id="XMLID_96_" class="st0" d="M169.3,73.6v2.7c0,0.6-0.2,0.9-0.9,0.9h-4.9v15.6c0,0.7-0.4,0.9-0.9,0.9h-3.2
				c-0.6,0-0.9-0.2-0.9-0.9V77.1h-4.9c-0.7,0-0.9-0.4-0.9-0.9v-2.7c0-0.6,0.2-0.9,0.9-0.9h14.8C169.1,72.6,169.3,73,169.3,73.6z"/>
			<path id="XMLID_94_" class="st0" d="M200.6,73.5L194,85.8v7c0,0.7-0.4,0.9-0.9,0.9h-3.2c-0.6,0-0.9-0.2-0.9-0.9v-7l-6.8-12.3
				c-0.2-0.4-0.1-0.9,0.5-0.9h3.7c0.7,0,1.1,0.1,1.5,1l3.7,6.9l3.6-6.9c0.4-0.9,0.7-1,1.5-1h3.5C200.7,72.6,200.7,73.2,200.6,73.5z"
				/>
		</g>
		<g id="XMLID_88_">
			<g id="XMLID_91_">
				<linearGradient id="XMLID_4_" gradientUnits="userSpaceOnUse" x1="101" y1="62.0981" x2="101" y2="4.4227">
					<stop  offset="0" style="stop-color:#9AB5AC"/>
					<stop  offset="0.2" style="stop-color:#D6CFC1"/>
					<stop  offset="0.4" style="stop-color:#B89765"/>
					<stop  offset="0.6" style="stop-color:#B78463"/>
					<stop  offset="0.8" style="stop-color:#5F616C"/>
					<stop  offset="1" style="stop-color:#1D2C31"/>
				</linearGradient>
				<path id="XMLID_92_" class="st1" d="M111.4,29.1v-3c0-0.6,0.4-1,1-1h6.6L101,7.2L83.1,25.1h6.6c0.6,0,1,0.4,1,1v3
					c0,0.6-0.4,1-1,1H73c-1.1,0-1.4-0.6-0.6-1.4L99.6,1.5c0.8-0.8,2-0.8,2.8,0l27.1,27.1c0.8,0.8,0.5,1.4-0.6,1.4h-16.6
					C111.8,30.1,111.4,29.7,111.4,29.1z"/>
			</g>
			<g id="XMLID_89_">
				<linearGradient id="XMLID_5_" gradientUnits="userSpaceOnUse" x1="100.8624" y1="59.0995" x2="101.1958" y2="2.4328">
					<stop  offset="0" style="stop-color:#9AB5AC"/>
					<stop  offset="0.2" style="stop-color:#D6CFC1"/>
					<stop  offset="0.4" style="stop-color:#B89765"/>
					<stop  offset="0.6" style="stop-color:#B78463"/>
					<stop  offset="0.8" style="stop-color:#5F616C"/>
					<stop  offset="1" style="stop-color:#1D2C31"/>
				</linearGradient>
				<path id="XMLID_90_" class="st2" d="M73,35.1h16.6c0.6,0,1,0.4,1,1v3c0,0.6-0.4,1-1,1h-6.6L101,58l17.9-17.9h-6.6
					c-0.6,0-1-0.4-1-1v-3c0-0.6,0.4-1,1-1H129c1.1,0,1.4,0.6,0.6,1.4l-27.1,27.1c-0.8,0.8-2,0.8-2.8,0L72.4,36.5
					C71.7,35.7,71.9,35.1,73,35.1z"/>
			</g>
		</g>
	</g>
	<g id="XMLID_256_">
		<path id="XMLID_267_" class="st3" d="M65.3,111c-1.7,0-3.8-1-3.8-3.2v-3.3c0-2.2,2.1-3.2,3.8-3.2c1.7,0,3.5,0.9,3.6,2.7
			c0,0.3-0.1,0.4-0.4,0.4h-1.3c-0.3,0-0.3-0.3-0.4-0.4c-0.3-0.5-0.7-0.7-1.4-0.7c-0.9,0-1.6,0.5-1.6,1.4v2.9c0,0.9,0.6,1.4,1.6,1.4
			c0.8,0,1.4-0.3,1.5-1c0-0.3,0.1-0.5,0.4-0.5h1.4c0.3,0,0.4,0.1,0.4,0.5C69,109.9,67.1,111,65.3,111z"/>
		<path id="XMLID_265_" class="st3" d="M83.3,102v8.4c0,0.3-0.2,0.4-0.4,0.4h-1.4c-0.3,0-0.4-0.1-0.4-0.4v-3.2h-3.1v3.2
			c0,0.3-0.1,0.4-0.4,0.4h-1.4c-0.3,0-0.4-0.1-0.4-0.4V102c0-0.3,0.2-0.4,0.4-0.4h1.4c0.3,0,0.4,0.1,0.4,0.4v3.2h3.1V102
			c0-0.3,0.2-0.4,0.4-0.4h1.4C83.1,101.6,83.3,101.7,83.3,102z"/>
		<path id="XMLID_263_" class="st3" d="M97.7,102v6c0,2.2-2,3-3.7,3s-3.7-0.8-3.7-3v-6c0-0.3,0.2-0.4,0.4-0.4h1.4
			c0.3,0,0.4,0.1,0.4,0.4v5.7c0,0.9,0.6,1.4,1.5,1.4c0.9,0,1.5-0.5,1.5-1.4V102c0-0.3,0.2-0.4,0.4-0.4h1.4
			C97.5,101.6,97.7,101.7,97.7,102z"/>
		<path id="XMLID_261_" class="st3" d="M112,110.8h-1.7c-0.3,0-0.5-0.1-0.7-0.4l-1.5-2.3c-0.1-0.2-0.2-0.3-0.2-0.7v-1.1
			c0-0.3,0.1-0.4,0.4-0.4h0.3c0.7,0,1.3-0.5,1.3-1.1c0-0.7-0.6-1.2-1.3-1.2h-1.9v6.8c0,0.3-0.2,0.4-0.4,0.4h-1.4
			c-0.3,0-0.4-0.1-0.4-0.4V102c0-0.3,0.1-0.4,0.4-0.4h3.5c1.5,0,2.2,0.3,2.8,0.9c0.5,0.5,0.8,1.3,0.8,2.2c0,1.5-1.1,2.5-1.9,2.8
			l2,2.9C112.3,110.6,112.3,110.8,112,110.8z"/>
		<path id="XMLID_259_" class="st3" d="M122.5,111c-1.7,0-3.8-1-3.8-3.2v-3.3c0-2.2,2.1-3.2,3.8-3.2c1.7,0,3.5,0.9,3.6,2.7
			c0,0.3-0.1,0.4-0.4,0.4h-1.3c-0.3,0-0.3-0.3-0.4-0.4c-0.3-0.5-0.7-0.7-1.4-0.7c-0.9,0-1.6,0.5-1.6,1.4v2.9c0,0.9,0.6,1.4,1.6,1.4
			c0.8,0,1.4-0.3,1.5-1c0-0.3,0.1-0.5,0.4-0.5h1.4c0.3,0,0.4,0.1,0.4,0.5C126.1,109.9,124.2,111,122.5,111z"/>
		<path id="XMLID_257_" class="st3" d="M140.4,102v8.4c0,0.3-0.2,0.4-0.4,0.4h-1.4c-0.3,0-0.4-0.1-0.4-0.4v-3.2h-3.1v3.2
			c0,0.3-0.1,0.4-0.4,0.4h-1.4c-0.3,0-0.4-0.1-0.4-0.4V102c0-0.3,0.2-0.4,0.4-0.4h1.4c0.3,0,0.4,0.1,0.4,0.4v3.2h3.1V102
			c0-0.3,0.2-0.4,0.4-0.4h1.4C140.3,101.6,140.4,101.7,140.4,102z"/>
	</g>
</g>
</svg>
